Coordinates
version=1
nRows=14
nColumns=40
inDegrees=yes

Units are S.I. units (second, meters, Newtons, ...)
Angles are in degrees.

endheader
time	pelvis_tilt	pelvis_list	pelvis_rotation	pelvis_tx	pelvis_ty	pelvis_tz	hip_flexion_r	hip_adduction_r	hip_rotation_r	knee_angle_r	knee_angle_r_beta	ankle_angle_r	subtalar_angle_r	mtp_angle_r	hip_flexion_l	hip_adduction_l	hip_rotation_l	knee_angle_l	knee_angle_l_beta	ankle_angle_l	subtalar_angle_l	mtp_angle_l	lumbar_extension	lumbar_bending	lumbar_rotation	arm_flex_r	arm_add_r	arm_rot_r	elbow_flex_r	pro_sup_r	wrist_flex_r	wrist_dev_r	arm_flex_l	arm_add_l	arm_rot_l	elbow_flex_l	pro_sup_l	wrist_flex_l	wrist_dev_l
     34.10000000	     -2.28186503	     -5.23775599	      5.32804912	      0.95407604	      0.93297450	      0.49300641	      5.03561768	      5.56587654	    -17.33000898	     10.23139638	     10.23139638	     10.07681146	      1.17978605	     -8.16096307	     32.84026361	    -10.32278431	      0.14657757	     39.04744184	     39.04744184	     10.86005474	    -16.71190440	     11.13479636	     -9.00186720	      6.91075980	      5.02443406	     29.25963710	    -16.91837427	     -5.77798444	     48.85616903	     45.70918696	      0.00000000	      0.00000000	      1.59432789	     -5.80915616	      2.59596889	     24.09494288	     45.71147350	      0.00000000	      0.00000000
     34.11171429	     -2.37414998	     -5.18516673	      5.62636903	      0.95307749	      0.93243672	      0.49265666	      4.64927108	      5.56491981	    -17.37739717	     10.12115861	     10.12115861	     10.40723350	      0.98346977	     -8.23957221	     33.02080101	     -9.81137737	      0.41353392	     35.32309202	     35.32309202	     10.80884353	    -15.59060684	     11.46106019	     -8.98433503	      6.75303778	      4.95856080	     30.94848290	    -17.14988492	     -5.92004691	     50.10775085	     45.67821093	      0.00000000	      0.00000000	      0.30845825	     -5.87631970	      2.63012557	     23.41601834	     45.68241809	      0.00000000	      0.00000000
     34.12342857	     -2.43882589	     -5.21003828	      5.96263716	      0.95216544	      0.93181987	      0.49220136	      4.23857112	      5.64468930	    -17.49478022	     10.01257811	     10.01257811	     10.74483401	      0.82856842	     -8.30938676	     33.14306852	     -9.35573573	      0.73549768	     31.69984312	     31.69984312	     10.62486477	    -14.29180620	     11.50476434	     -8.99979215	      6.71014229	      4.67082689	     32.58576701	    -17.24209805	     -6.00414405	     51.96549618	     45.62192954	      0.00000000	      0.00000000	     -0.99140102	     -5.93162454	      2.69063269	     22.66036881	     45.64938135	      0.00000000	      0.00000000
     34.13514286	     -2.57202186	     -5.22932827	      6.28374814	      0.95135360	      0.93106417	      0.49170598	      3.90843122	      5.70116737	    -17.61776187	      9.93868370	      9.93868370	     11.08907664	      0.70094128	     -8.38736054	     33.28575631	     -8.93409807	      0.84595288	     28.22896491	     28.22896491	     10.42883880	    -12.64216945	     11.66954110	     -8.90247988	      6.62655366	      4.62036390	     34.04054750	    -17.51263368	     -6.10756374	     53.49165480	     45.57893423	      0.00000000	      0.00000000	     -2.17568620	     -5.98543435	      2.72470842	     22.07454310	     45.62263572	      0.00000000	      0.00000000
     34.14685714	     -2.62400365	     -5.25120184	      6.61130853	      0.95070524	      0.93035572	      0.49111208	      3.48426819	      5.76028987	    -17.77711813	      9.87903278	      9.87903278	     11.48539008	      0.65101995	     -8.40987313	     33.32960302	     -8.54345848	      0.84190161	     25.06045334	     25.06045334	     10.17087956	    -10.81377761	     11.56877099	     -8.93757716	      6.59067395	      4.38030817	     35.41124610	    -17.63402470	     -6.17549956	     55.66937983	     45.51089210	      0.00000000	      0.00000000	     -3.42073360	     -6.07925852	      2.78460205	     21.50077539	     45.58948197	      0.00000000	      0.00000000
     34.15857143	     -2.71326774	     -5.28556393	      6.93232326	      0.95024373	      0.92957374	      0.49042792	      3.08638639	      5.82767855	    -17.94703964	      9.82260375	      9.82260375	     11.89652274	      0.61456222	     -8.39467213	     33.41956774	     -8.17281936	      0.66391114	     22.26891390	     22.26891390	      9.85651921	     -8.99334465	     11.53228435	     -8.87658695	      6.54647045	      4.27965477	     36.62011672	    -17.86074843	     -6.28160997	     57.65690540	     45.45153892	      0.00000000	      0.00000000	     -4.58692977	     -6.17422580	      2.84046565	     21.07970299	     45.55670638	      0.00000000	      0.00000000
     34.17028571	     -2.77480953	     -5.38929192	      7.24994042	      0.94989447	      0.92873936	      0.48968482	      2.66287439	      5.96192336	    -18.20313424	      9.79137280	      9.79137280	     12.47867365	      0.82579318	     -7.89376724	     33.54579659	     -7.90679311	      0.30688026	     19.95710964	     19.95710964	      9.17879171	     -7.18632487	     10.46112026	     -8.89290076	      6.61761891	      4.64516615	     36.87893203	    -18.64548952	     -6.55714153	     61.67865972	     45.32919625	      0.00000000	      0.00000000	     -5.60162989	     -6.29925245	      3.22416010	     21.16292201	     45.45966600	      0.00000000	      0.00000000
     34.18200000	     -2.86417304	     -5.36889538	      7.54769903	      0.94969196	      0.92799654	      0.48877548	      2.24553404	      5.96548147	    -18.30244738	      9.73589043	      9.73589043	     12.87298393	      0.72300162	     -7.88970120	     33.64914728	     -7.48198357	     -0.04091119	     18.11772406	     18.11772406	      8.87984035	     -5.85846540	     10.69750511	     -8.77736321	      6.53227447	      4.46700416	     38.19363726	    -18.69064690	     -6.76249476	     62.86271509	     45.30417616	      0.00000000	      0.00000000	     -6.66864440	     -6.40077517	      3.33562128	     20.71162519	     45.41813611	      0.00000000	      0.00000000
     34.19371429	     -2.91148793	     -5.40163075	      7.84032126	      0.94968615	      0.92721708	      0.48781885	      1.76451086	      6.02749038	    -18.48058929	      9.68884001	      9.68884001	     13.45804530	      0.87255821	     -7.30529919	     33.82487052	     -7.17877054	     -0.64241002	     16.96931751	     16.96931751	      8.52538950	     -4.56884333	     10.25803051	     -8.73483147	      6.52735136	      4.49563116	     38.93480924	    -18.91122903	     -7.30018481	     65.39789742	     45.25366666	      0.00000000	      0.00000000	     -7.80197315	     -6.59174146	      3.98875973	     20.94900953	     45.26379289	      0.00000000	      0.00000000
     34.20542857	     -2.99181368	     -5.36157510	      8.09193388	      0.94979127	      0.92645421	      0.48671985	      1.30367702	      6.00822664	    -18.53839439	      9.62521139	      9.62521139	     13.83748733	      0.79420325	     -7.26266090	     33.94247181	     -6.77993338	     -1.09336669	     16.22129056	     16.22129056	      8.24700447	     -3.98856625	     10.33143004	     -8.59583224	      6.44240292	      4.30409556	     40.14360716	    -18.87163339	     -7.47498743	     66.47802290	     45.23118572	      0.00000000	      0.00000000	     -8.77991229	     -6.65805789	      4.11559516	     20.62976088	     45.22073309	      0.00000000	      0.00000000
     34.21714286	     -3.11694879	     -5.33361026	      8.29882090	      0.95005035	      0.92553379	      0.48552516	      0.87194601	      5.98600462	    -18.57405792	      9.54684529	      9.54684529	     14.19054951	      0.74398008	     -7.26831529	     34.17224062	     -6.41898260	     -1.44942069	     16.13186934	     16.13186934	      8.04332862	     -3.92929151	     10.34399381	     -8.34841459	      6.35127082	      4.38276758	     41.16618880	    -19.15602471	     -7.67346747	     67.12499654	     45.22222256	      0.00000000	      0.00000000	     -9.62709712	     -6.73613115	      4.13579615	     20.35905848	     45.19999464	      0.00000000	      0.00000000
     34.22885714	     -3.22510229	     -5.29445787	      8.48419170	      0.95050515	      0.92464666	      0.48420553	      0.41720578	      5.94780821	    -18.61955081	      9.48756812	      9.48756812	     14.58579395	      0.66677257	     -7.30806785	     34.22238001	     -6.08424343	     -1.80838419	     16.25442859	     16.25442859	      7.80387324	     -4.02408435	     10.36831039	     -8.06873692	      6.31028751	      4.54646361	     41.91425756	    -19.30276337	     -7.79842807	     67.60226437	     45.21452249	      0.00000000	      0.00000000	    -10.33572879	     -6.79577799	      4.13592669	     20.13084307	     45.18569506	      0.00000000	      0.00000000
     34.24057143	     -3.17246073	     -5.24161772	      8.55750428	      0.95135074	      0.92383020	      0.48297592	     -0.24906712	      5.89664447	    -18.69069529	      9.48721303	      9.48721303	     15.45312937	      1.18516888	     -5.88405954	     34.07022641	     -5.89592446	     -2.26610447	     16.82115966	     16.82115966	      7.09375922	     -4.31099986	      8.68586244	     -8.19447907	      6.23378589	      4.26053085	     42.36341013	    -18.89962162	     -8.64200512	     71.34533045	     45.13687303	      0.00000000	      0.00000000	    -11.78233558	     -6.96073082	      4.73372989	     21.33454590	     45.01977919	      0.00000000	      0.00000000
     34.25228571	     -3.22929388	     -5.15800486	      8.55946731	      0.95224573	      0.92279936	      0.48162139	     -0.78071952	      5.78717324	    -18.59658322	      9.48419153	      9.48419153	     15.86369024	      1.22529507	     -5.84697494	     33.94009116	     -5.66353773	     -2.45036301	     17.64797763	     17.64797763	      6.80213135	     -4.94410351	      8.55205661	     -7.99509558	      6.12046423	      4.33130410	     43.20099442	    -18.91079262	     -8.76498362	     71.93726201	     45.12724694	      0.00000000	      0.00000000	    -12.44259535	     -6.94092602	      4.84633284	     21.09016833	     44.98691830	      0.00000000	      0.00000000
